<?xml version="1.0" standalone="no"?>
<!DOCTYPE svg PUBLIC "-//W3C//DTD SVG 20010904//EN"
 "http://www.w3.org/TR/2001/REC-SVG-20010904/DTD/svg10.dtd">
<svg version="1.0" xmlns="http://www.w3.org/2000/svg"
 width="512.000000pt" height="512.000000pt" viewBox="0 0 512.000000 512.000000"
 preserveAspectRatio="xMidYMid meet">
<metadata>
Created by potrace 1.14, written by Peter Selinger 2001-2017
</metadata>
<g transform="translate(0.000000,512.000000) scale(0.100000,-0.100000)"
fill="#000000" stroke="none">
<path d="M448 4943 c-115 -30 -198 -98 -246 -202 l-26 -56 -2 -360 c-9 -1446
-7 -3172 3 -3190 16 -29 968 -968 988 -975 18 -6 258 -5 1210 4 636 7 1108 14
1302 20 95 4 132 9 169 25 65 29 129 83 160 136 48 82 53 124 48 403 -9 594
-21 1167 -39 1862 l-5 205 57 61 c32 33 94 100 138 149 141 156 180 199 195
215 8 9 51 56 95 105 44 49 85 95 90 101 20 22 135 152 215 244 45 52 93 107
105 122 59 67 75 150 46 242 -12 38 -30 65 -75 109 -33 32 -73 68 -90 79 l-31
21 26 -29 c14 -16 44 -49 67 -74 75 -80 94 -157 58 -232 -16 -34 -277 -298
-294 -298 -4 0 -16 19 -26 43 -39 92 -164 240 -274 326 -48 38 -186 111 -208
111 -21 0 -9 19 52 83 27 28 80 87 118 129 84 95 118 118 180 118 66 0 109
-21 191 -93 74 -65 72 -59 -13 39 -80 94 -190 130 -280 92 -18 -8 -88 -68
-155 -134 -67 -65 -137 -132 -155 -148 l-32 -30 2 265 c3 259 3 265 -20 311
-47 94 -142 163 -239 173 -101 10 -811 21 -1983 31 -1306 11 -1266 11 -1322
-3z m3374 -111 c55 -25 106 -76 128 -128 15 -34 19 -84 24 -290 l6 -249 -272
-265 c-149 -146 -459 -453 -687 -682 l-415 -417 -29 -108 c-16 -60 -56 -202
-89 -318 -33 -115 -63 -223 -68 -240 -4 -16 -20 -70 -35 -120 -15 -50 -24 -99
-20 -113 9 -36 53 -72 88 -72 17 0 221 64 454 141 l423 141 103 110 c56 61
116 125 132 143 30 32 211 225 336 359 35 37 66 72 67 77 2 5 8 9 13 9 6 0 8
-58 5 -147 -8 -242 -23 -877 -31 -1283 -3 -151 -7 -410 -10 -575 -4 -175 -11
-316 -17 -338 -16 -53 -71 -113 -121 -132 -38 -14 -84 -15 -387 -11 -805 12
-1184 17 -1668 21 -283 2 -516 6 -518 8 -3 3 2 45 10 93 8 49 18 116 21 149 3
33 8 78 10 100 6 55 18 201 19 250 4 104 -76 230 -181 288 -51 27 -154 56
-186 51 -9 -1 -57 -5 -105 -9 -48 -3 -100 -8 -117 -10 -88 -9 -139 -17 -227
-32 -54 -9 -100 -15 -102 -12 -2 2 -7 686 -10 1519 -3 833 -7 1607 -9 1720 -4
218 -1 235 45 276 55 50 62 51 433 59 193 3 429 8 525 10 96 2 335 6 530 10
195 4 423 8 505 10 83 2 326 6 540 10 215 4 391 7 392 8 1 1 103 3 227 5 205
3 230 1 268 -16z m324 -930 c47 -62 176 -186 239 -228 33 -22 86 -51 118 -64
31 -13 57 -26 57 -30 0 -3 -91 -94 -202 -200 -111 -107 -400 -391 -642 -631
l-440 -436 -44 74 c-73 126 -213 258 -356 338 l-54 31 66 70 c68 71 287 305
337 359 33 36 206 224 220 239 6 6 55 61 110 121 113 125 107 118 160 176 22
24 105 117 184 207 l144 163 37 -76 c21 -41 50 -92 66 -113z m-1356 -1263 c0
-21 70 -115 133 -179 84 -86 140 -132 209 -172 57 -33 71 -48 44 -48 -8 0
-137 -38 -287 -85 -149 -47 -273 -84 -275 -82 -2 2 7 41 20 88 13 46 43 154
66 239 64 238 71 261 81 255 5 -4 9 -11 9 -16z m-2275 -1515 c28 -3 58 -8 68
-10 32 -6 152 -17 301 -29 114 -9 155 -36 195 -126 19 -42 24 -75 35 -214 7
-78 16 -167 21 -195 3 -14 7 -47 11 -75 3 -27 8 -53 11 -57 2 -5 3 -8 1 -8 -2
0 -167 165 -368 366 -201 201 -356 363 -345 360 11 -3 43 -8 70 -12z"/>
<path d="M1897 4354 c-1 -1 -74 -5 -162 -8 -165 -7 -264 -14 -325 -21 -19 -3
-57 -7 -85 -10 -27 -4 -102 -15 -165 -27 -63 -11 -120 -21 -127 -21 -30 -1 2
-15 49 -22 29 -5 55 -9 58 -10 4 -1 53 -7 160 -21 19 -2 49 -6 65 -9 320 -47
1131 -52 1475 -9 30 4 64 8 75 9 11 0 45 5 75 10 30 5 60 9 65 10 49 5 166 29
170 35 10 17 -428 72 -690 86 -103 6 -633 13 -638 8z"/>
<path d="M2098 3615 c-2 -1 -102 -5 -223 -9 -242 -7 -369 -13 -430 -21 -22 -2
-62 -7 -90 -10 -147 -16 -370 -61 -325 -65 8 -1 24 -3 35 -6 36 -7 289 -43
350 -49 33 -3 74 -8 90 -10 149 -19 776 -27 1065 -12 158 7 188 10 345 29 87
10 100 12 155 23 14 2 43 7 65 10 22 3 54 9 70 14 26 7 27 9 10 14 -22 6 -193
33 -270 42 -27 3 -63 7 -80 9 -29 4 -138 15 -220 22 -22 2 -146 6 -275 9 -129
3 -243 8 -252 9 -9 2 -18 3 -20 1z"/>
<path d="M1459 2866 c-2 -2 -40 -7 -83 -10 -81 -6 -275 -48 -331 -72 l-30 -12
25 -10 c53 -20 244 -64 328 -75 128 -18 335 -14 502 9 100 14 249 51 286 72
24 13 -163 64 -321 87 -52 7 -370 17 -376 11z"/>
</g>
</svg>
